<svg xmlns="http://www.w3.org/2000/svg" width="256" height="256" viewBox="0 0 256 256">
  <defs>
    <linearGradient id="bg" x1="20" y1="18" x2="236" y2="236" gradientUnits="userSpaceOnUse">
      <stop stop-color="#081423"/>
      <stop offset=".56" stop-color="#08101c"/>
      <stop offset="1" stop-color="#02040a"/>
    </linearGradient>
    <linearGradient id="edge" x1="42" y1="50" x2="214" y2="206" gradientUnits="userSpaceOnUse">
      <stop stop-color="#5eead4"/>
      <stop offset=".52" stop-color="#93c5fd"/>
      <stop offset="1" stop-color="#f0abfc"/>
    </linearGradient>
    <filter id="glow" x="-50%" y="-50%" width="200%" height="200%">
      <feGaussianBlur stdDeviation="6" result="blur"/>
      <feMerge>
        <feMergeNode in="blur"/>
        <feMergeNode in="SourceGraphic"/>
      </feMerge>
    </filter>
  </defs>
  <rect width="256" height="256" rx="44" fill="url(#bg)"/>
  <path d="M54 70h148M54 128h148M54 186h148M70 54v148M128 54v148M186 54v148" stroke="#5eead4" stroke-opacity=".12" stroke-width="3"/>
  <path d="M77 78l50 52 52-53M78 178l49-48 52 48" fill="none" stroke="url(#edge)" stroke-width="15" stroke-linecap="round" stroke-linejoin="round" filter="url(#glow)"/>
  <circle cx="77" cy="78" r="20" fill="#07111f" stroke="#5eead4" stroke-width="7"/>
  <circle cx="179" cy="77" r="20" fill="#07111f" stroke="#f0abfc" stroke-width="7"/>
  <circle cx="127" cy="130" r="24" fill="#07111f" stroke="#93c5fd" stroke-width="8"/>
  <circle cx="78" cy="178" r="20" fill="#07111f" stroke="#facc15" stroke-width="7"/>
  <circle cx="179" cy="178" r="20" fill="#07111f" stroke="#5eead4" stroke-width="7"/>
  <text x="128" y="142" text-anchor="middle" font-family="Inter,Arial,sans-serif" font-size="38" font-weight="900" fill="#e9f7ff">H</text>
</svg>
